<?xml version="1.0" encoding="utf-8"?>
<!-- Generator: Adobe Illustrator 21.0.0, SVG Export Plug-In . SVG Version: 6.00 Build 0)  -->
<svg version="1.1" xmlns="http://www.w3.org/2000/svg" xmlns:xlink="http://www.w3.org/1999/xlink" x="0px" y="0px"
	 viewBox="0 0 612 792" style="enable-background:new 0 0 612 792;" xml:space="preserve">
<style type="text/css">
	.st0{fill:none;stroke:#4169E1;stroke-width:0;stroke-linecap:round;stroke-linejoin:round;stroke-miterlimit:10;}
  .inner-clock{fill:#000000;}
  .outer-clock{fill:white;}
  .metal{fill: black;}
  .shadow{fill: black;}

</style>
<g id="Circulo_1">
  <g id="CIRCLE_2_">
    <path class="st0 fundo" d="M0.1,396C0.1,227.1,137.1,90.1,306,90.1S611.9,227.1,611.9,396S474.9,701.9,306,701.9S0.1,564.9,0.1,396
      L0.1,396z"/>
  </g>
</g>
<g id="Circulo_2">
  <g id="CIRCLE_1_">
    <path class="st0 inner-clock" d="M174.9,413.6c0-85,68.9-154,154-154s154,68.9,154,154s-68.9,154-154,154S174.9,498.6,174.9,413.6L174.9,413.6
      z"/>
  </g>
</g>
<g id="Circulo_3">
	<g id="CIRCLE">
		<path class="st0 outer-clock" d="M195.2,413.6c0-73.8,59.8-133.6,133.6-133.6s133.6,59.8,133.6,133.6s-59.8,133.6-133.6,133.6
			S195.2,487.4,195.2,413.6L195.2,413.6z"/>
	</g>
</g>
<g id="Reta_2">
	<g id="LWPOLYLINE">
		<path class="st0 shadow" d="M175,407.3H62.8c-4,1.2-6.2,5.4-5,9.4c0.7,2.4,2.6,4.3,5,5h112.3C174.9,416.9,174.8,412.1,175,407.3z"/>
	</g>
</g>
<g id="Reta_1">
	<g id="LWPOLYLINE_1_">
		<path class="st0 shadow" d="M189.3,348.6h-56.1c-3.9,0.9-6.3,4.7-5.4,8.6c0.6,2.5,2.4,4.5,4.9,5.3h51
			C185.3,357.8,187.1,353.2,189.3,348.6z"/>
	</g>
</g>
<g id="Reta_4">
	<g id="LWPOLYLINE_2_">
		<path class="st0 shadow" d="M43,407.3H27.7c-4,0.4-6.9,4-6.4,8c0.4,3.5,3.1,6.2,6.6,6.4c0,0,15.7,0,15.7,0c3.9-1,6.4-4.9,5.4-8.9
			C48.3,410,45.9,407.8,43,407.3z"/>
	</g>
</g>
<g id="Reta_3">
	<g id="LWPOLYLINE_3_">
		<path class="st0 shadow" d="M184.3,466.6H95.9c-3.8,2.1-5.2,6.8-3.1,10.6c1,1.8,2.6,3.1,4.5,3.7c0,0,93.1,0,93.1,0
			C188.1,476.2,186.1,471.4,184.3,466.6z"/>
	</g>
</g>
<g id="Trava">
	<g id="LWPOLYLINE_4_">
		<path class="st0 metal" d="M317.2,260v-36.7H303v-18c0-0.3,0-0.5,0-0.8c0.2-2.2,2.2-3.9,4.5-3.7c0,0,43.7,0,43.7,0
			c2.3,0.2,4,2.1,4.1,4.4l-0.1,17.9h-13.9v36.9C333.2,259.5,325.2,259.4,317.2,260z"/>
	</g>
</g>
<g id="Botão_2">
	<g id="LWPOLYLINE_5_">
		<path class="st0 metal" d="M460.8,263.2c0.9-1.5,0.5-3.4-0.9-4.4c0,0-17.4-13.1-17.4-13.1c-1.2-1.1-3-1.3-4.3-0.3
			c0,0-22.6,29.4-22.6,29.4l-5.8-4.3l22.4-29.1c4.4-4,11.1-4.1,15.6-0.3c0,0,16.5,12,16.5,12c3.6,3,4.9,7.9,3.2,12.2l-23,31
			l-5.8-4.6C438.7,291.8,460.8,263.2,460.8,263.2z"/>
	</g>
</g>
<g id="Botão_1">
	<g id="LWPOLYLINE_6_">
		<path class="st0 metal" d="M220.5,245.5c-1.2-1.3-3.2-1.4-4.5-0.2l-17.1,13.4c-1.4,0.8-2,2.6-1.4,4.1l22.6,29.4l-5.7,4.5l-22.4-29.1
			c-2.7-5.3-1.1-11.8,3.7-15.2l15.9-12.8c3.8-2.7,8.9-2.7,12.7,0.1l24,30.2l-5.9,4.4L220.5,245.5z"/>
	</g>
</g>
<g id="Semi_circulo">
	<g id="LWPOLYLINE_7_">
		<path class="st0 metal" d="M339.2,153.8c16.1,3.5,29.1,15.4,34,31.1c7.6,24.2-5.8,50-30,57.6v8.9c29.2-7.6,46.7-37.4,39.1-66.5
			c-6.2-24.1-27.9-40.9-52.8-40.9c-30.4,0.2-54.8,25-54.6,55.4c0.2,24.5,16.6,46,40.2,52.6v-10.3c-15.8-5.2-27.6-18.6-30.6-35
			c-4.6-24.8,11.7-48.6,36.5-53.2C327,152.3,333.2,152.5,339.2,153.8z"/>
	</g>
</g>
<line class="iconic-clock-hour-hand" id="foo" fill="none" stroke="#0040FF" stroke-width="18" stroke-miterlimit="10" x1="330" y1="415" x2="330" y2="350"/>
<line class="iconic-clock-minute-hand" id="iconic-anim-clock-minute-hand" fill="none" stroke="#08298A" stroke-width="12" stroke-miterlimit="10" x1="330" y1="415" x2="330" y2="300"/>
<circle class="iconic-clock-axis" cx="330" cy="415" r="9"/>
<g class="iconic-clock-second-hand" id="iconic-anim-clock-second-hand">
    <line class="iconic-clock-second-hand-arm" fill="none" stroke="#D53A1F" stroke-width="4" stroke-miterlimit="10" x1="330" y1="415" x2="330" y2="290"/>
    <circle class="iconic-clock-second-hand-axis" fill="#D53A1F" cx="330" cy="415" r="4.5"/>
</g>
    <defs>
    <animateTransform
          type="rotate"
          fill="remove"
          restart="always"
          calcMode="linear"
          accumulate="none"
          additive="sum"
          xlink:href="#iconic-anim-clock-hour-hand"
          repeatCount="indefinite"
          dur="43200s"
          to="360 330 415"
          from="0 330 415"
          attributeName="transform"
          attributeType="xml">
    </animateTransform>

    <animateTransform
          type="rotate"
          fill="remove"
          restart="always"
          calcMode="linear"
          accumulate="none"
          additive="sum"
          xlink:href="#iconic-anim-clock-minute-hand"
          repeatCount="indefinite"
          dur="3600s"
          to="360 330 415"
          from="0 330 415"
          attributeName="transform"
          attributeType="xml">
    </animateTransform>

    <animateTransform
          type="rotate"
          fill="remove"
          restart="always"
          calcMode="linear"
          accumulate="none"
          additive="sum"
          xlink:href="#iconic-anim-clock-second-hand"
          repeatCount="indefinite"
          dur="60s"
          to="360 330 415"
          from="0 330 415"
          attributeName="transform"
          attributeType="xml">
    </animateTransform>
  </defs>
  <script  type="text/javascript">
  <![CDATA[
      var date = new Date;
      var seconds = date.getSeconds();
      var minutes = date.getMinutes();
      var hours = date.getHours();
      hours = (hours > 12) ? hours - 12 : hours;

      minutes = (minutes * 60) + seconds;
      hours = (hours * 3600) + minutes;

      document.querySelector('.iconic-clock-second-hand').setAttribute('transform', 'rotate('+360*(seconds/60)+', 330,415)');
      document.querySelector('.iconic-clock-minute-hand').setAttribute('transform', 'rotate('+360*(minutes/3600)+', 330,415)');
      document.querySelector('.iconic-clock-hour-hand').setAttribute('transform', 'rotate('+360*(hours/43200)+',330,415)');
  ]]>
  </script>
</svg>
