<?xml version="1.0" encoding="utf-8"?>
<!-- Generator: Adobe Illustrator 21.0.0, SVG Export Plug-In . SVG Version: 6.00 Build 0)  -->
<svg version="1.1" xmlns="http://www.w3.org/2000/svg" xmlns:xlink="http://www.w3.org/1999/xlink" x="0px" y="0px"
	 viewBox="0 0 612 792" style="enable-background:new 0 0 612 792;" xml:space="preserve">
<style type="text/css">
	.st0{fill:none;stroke:#000000;stroke-width:0.7087;stroke-linecap:round;stroke-linejoin:round;stroke-miterlimit:10;}
	.st1{fill:none;stroke:#FF0000;stroke-width:0.7087;stroke-linecap:round;stroke-linejoin:round;stroke-miterlimit:10;}
</style>
<g id="Luz_9">
	<g id="LWPOLYLINE">
		<path class="st0" d="M409.2,270.4c1.6-0.3,2.7-1.8,2.4-3.5c-0.2-1.2-1.2-2.2-2.4-2.4c0,0-15.8,0-15.8,0c-1.6,0.2-2.8,1.7-2.6,3.3
			c0.2,1.5,1.4,2.6,2.9,2.6H409.2z"/>
	</g>
</g>
<g id="Luz_8">
	<g id="LWPOLYLINE_1_">
		<path class="st0" d="M402.3,230.5c1.4-0.8,1.9-2.7,1-4.1c-0.6-1.1-1.9-1.6-3.1-1.4l-14.8,5.6c-1.4,0.8-2,2.6-1.2,4
			c0.7,1.3,2.2,1.9,3.6,1.4C387.8,236,402.3,230.5,402.3,230.5z"/>
	</g>
</g>
<g id="Luz_7">
	<g id="LWPOLYLINE_2_">
		<path class="st0" d="M380.9,196.5c0.9-1.4,0.6-3.2-0.8-4.2c-1-0.7-2.4-0.7-3.4,0l-11.2,11.3c-1,1.3-0.7,3.2,0.6,4.1
			c1.2,0.9,2.8,0.8,3.9-0.2L380.9,196.5z"/>
	</g>
</g>
<g id="Luz_6">
	<g id="LWPOLYLINE_3_">
		<path class="st0" d="M348.3,172.9c0.4-1.6-0.7-3.2-2.3-3.6c-1.2-0.3-2.5,0.3-3.2,1.3c0,0-6,14.6-6,14.6c-0.4,1.6,0.5,3.2,2.1,3.6
			c1.4,0.4,2.9-0.3,3.5-1.7L348.3,172.9z"/>
	</g>
</g>
<g id="Luz_5">
	<g id="LWPOLYLINE_4_">
		<path class="st0" d="M308.9,164.8c-0.2-1.6-1.8-2.8-3.4-2.5c-1.2,0.2-2.2,1.1-2.5,2.4c0,0-0.4,15.8-0.4,15.8
			c0.2,1.6,1.6,2.8,3.2,2.6c1.5-0.1,2.6-1.4,2.7-2.8C308.5,180.3,308.9,164.8,308.9,164.8z"/>
	</g>
</g>
<g id="Luz_4">
	<g id="LWPOLYLINE_5_">
		<path class="st0" d="M269.5,170.8c-0.9-1.4-2.7-1.8-4.1-1c-1.1,0.7-1.6,1.9-1.4,3.1l5.8,14.7c0.8,1.4,2.6,1.9,4,1.1
			c1.3-0.7,1.9-2.3,1.3-3.6C275.2,185.2,269.5,170.8,269.5,170.8z"/>
	</g>
</g>
<g id="Luz_3">
	<g id="LWPOLYLINE_6_">
		<path class="st0" d="M234.9,192.2c-1.4-0.9-3.2-0.5-4.1,0.9c-0.7,1.1-0.6,2.4,0.1,3.4c0,0,11.7,10.7,11.7,10.7
			c1.3,0.9,3.2,0.6,4.1-0.7c0.9-1.2,0.7-2.8-0.4-3.9C246.2,202.7,234.9,192.2,234.9,192.2z"/>
	</g>
</g>
<g id="Luz_2">
	<g id="LWPOLYLINE_7_">
		<path class="st0" d="M212.4,224.3c-1.6-0.4-3.2,0.5-3.7,2.1c-0.3,1.2,0.1,2.5,1.1,3.2l14.3,6.9c1.5,0.5,3.2-0.3,3.7-1.9
			c0.5-1.4-0.2-2.9-1.5-3.6C226.3,231.1,212.4,224.3,212.4,224.3z"/>
	</g>
</g>
<g id="luz_1">
	<g id="LWPOLYLINE_8_">
		<path class="st0" d="M203.4,264.2c-1.6,0.3-2.7,1.9-2.3,3.5c0.3,1.2,1.2,2.2,2.5,2.4c0,0,15.8-0.4,15.8-0.4
			c1.6-0.3,2.7-1.8,2.5-3.4c-0.2-1.5-1.5-2.5-3-2.5L203.4,264.2z"/>
	</g>
</g>
<g id="Lampada">
	<g id="SPLINE">
		<path class="st1" d="M335.5,373.3c0-2.1,0.1-4.2,0.4-6.2c0.5-2.8,1.4-5.4,2.4-8.1c4.1-11.3,7.7-23,15.2-32.1
			c3.4-4.1,7.6-7.7,11-11.8c8.5-10,12.6-23,16.6-36c5.3-30.8-7.2-59.4-33.3-76.5s-57.3-17.1-83.4,0c-26.1,17.1-38.5,45.7-33.3,76.5
			c2.6,11.4,6.5,23.1,13.3,31.6c0.7,0.8,1.3,1.6,2,2.4c7,8,15.3,16.2,20.6,25.8c3.8,6.9,6.1,14.6,7.3,22.5c0.6,3.9,0.8,7.8,1,9.9
			c0.9,2.5,1.2,2.9,3.6,3.4c18,0.1,35.9,0.3,53.9,0.4C334.2,375.1,335.2,374.4,335.5,373.3z"/>
	</g>
	<g id="SPLINE_5_">
		<path class="st1" d="M321.4,406c-10.3,0.1-20.5,0.1-30.8,0.2c0.3,3.1,0.7,6.2,2.5,8.1c1.4,1.6,3.8,2.4,6.2,2.9
			c4.5,1.1,8.9,1.2,13.3,0c2.8-0.8,5.6-2,7.2-4.3c0.8-1.2,1.3-2.7,1.5-4.1C321.3,407.8,321.3,406.8,321.4,406"/>
	</g>
	<g id="LWPOLYLINE_24_">
		<path class="st1" d="M332.7,396h-53.4c-1.4,3.4-0.7,7.3,1.8,10h50.1C333.5,403.2,334.1,399.4,332.7,396z"/>
	</g>
	<g id="LWPOLYLINE_25_">
		<path class="st1" d="M279.3,396c-0.2-0.2-0.4-0.4-0.5-0.6c-2.4-2.8-2-7,0.8-9.4h53.6c2.6,2.9,2.4,7.3-0.5,10
			C332.7,396,279.3,396,279.3,396z"/>
	</g>
	<g id="LWPOLYLINE_26_">
		<path class="st1" d="M279.6,386c-3.1-3.1-3.3-8.1-0.4-11.3c0,0,53.9,0.4,53.9,0.4l0.4,0c2.6,3.2,2.5,7.9-0.3,11H279.6z"/>
	</g>
</g>
<g id="Resistencia">
	<g id="SPLINE_1_">
		<path class="st1" d="M317.5,375c-2.1,0-4.2,0-6.3,0c0-34.1,0-68.2,0-102.3c-3.5,0-7.1,0-10.6,0c0,34.1,0,68.1,0,102.2
			c-2,0-4.1,0-6.1,0c0-34.1,0-68.1,0-102.2c-2.9,0-5.7,0-8.6,0c-4.9-1.5-8.4-5.2-8.5-10.2c-0.1-2.5,0.7-5.4,2-7.5
			c1.5-2.4,3.8-3.9,6.3-4.5c1.7-0.4,3.6-0.3,5.3,0c1.6,0.3,3,0.8,4.4,1.6c2.2,1.3,4,3.2,4.8,5.7c0.1,0.5,0.2,1,0.4,1.4
			c0,2.7,0,5.4,0,8.1c3.5,0,7.1,0,10.6,0c0-2.6,0-5.3,0-7.9c0.7-4.2,2-7.5,6.9-8.9c3.6-1,9-1,12.3,1.3c1.4,1,2.5,2.3,3.1,3.7
			c1,2.3,1,4.6,1,6.9c0,1.6-0.1,3.2-0.7,4.5c-0.5,1.1-1.4,2.1-2.4,2.9c-0.7,0.6-1.5,1.1-2.3,1.6c-1,0.5-2.2,0.9-3.3,1.2
			c-2.9,0-5.8,0-8.6,0C317.3,306.8,317.4,340.9,317.5,375z"/>
	</g>
	<g id="SPLINE_2_">
		<path class="st1" d="M294.5,267.9c0.7-1.2,1.1-3.5,0.8-5.7c-0.3-2.3-1.5-4.4-3.3-5.6c-1.3-0.9-3-1.3-4.5-1
			c-1.2,0.2-2.3,0.9-3.1,1.8c-0.9,1-1.4,2.3-1.4,3.6c0,1.2,0.3,2.4,0.9,3.4c0.6,0.9,1.4,1.7,2.3,2.3c1.4,0.9,3,1.5,4.8,1.6
			C292.2,268.4,293.4,268.4,294.5,267.9z"/>
	</g>
	<g id="SPLINE_3_">
		<path class="st1" d="M317.4,266.7c-0.3-2.5-0.5-5.1,0.5-7.2c0.5-1,1.2-1.8,2.1-2.5c0.9-0.7,2-1.1,3.1-1.2c1.6-0.2,3.4,0.3,4.7,1.4
			c0.6,0.5,1.2,1.2,1.5,2c0.5,1.1,0.6,2.4,0.4,3.6c-0.2,0.9-0.5,1.9-1,2.6c-0.6,0.8-1.6,1.4-2.6,1.9c-2.2,1.1-4.9,2-6.8,1.4
			C318.6,268.4,318,268,317.4,266.7z"/>
	</g>
</g>
<g id="Cabeça">
	<g id="SPLINE_4_">
		<path class="st1" d="M385.2,568.5c-42.5,0.1-82.2,0.1-121.9,0.2c0-0.1-0.1-0.2-0.1-0.3c-2.3-7-4.6-15.1-10.3-19.5
			c-3-2.3-6.9-3.6-10.7-3.9c-5.3-0.4-10.5,1.1-15.7,2.4c-7.6,1.9-15.2,3.3-23.1,3.9c-2.1,0.2-4.3,0.2-6.3-0.2
			c-4.5-0.9-8.4-4.2-11.3-8.1c-3.7-5-5.6-11-4.2-17.1c0.8-3.5,2.7-7,2.1-9.9c-0.6-2.8-3.8-4.9-6.3-7.8c-1.8-2.1-3.2-4.5-2.3-6.8
			c0.9-2.4,4.4-4.5,4-6.3c-0.4-2.1-6.4-3.7-6.3-6.3c0-0.7,0.4-1.4,0.8-2.1c2.4-4.9,3.8-11.3,1.6-14.5c-2.3-3.4-8.6-3.5-13.9-6.5
			c-2.7-1.5-5-3.8-4.7-6.1c0.1-0.9,0.6-1.7,1.1-2.6c5.5-9.3,11.7-16.5,18.6-24.5c5-5.8,10.4-12.1,11.7-18.9c1.6-8.3-2.9-17.3-5-26.4
			c-3-12.7-1.4-25.5,2.5-37.5c1.4-4.3,3.1-8.5,5.2-12.4c9.6-18.4,27-31.3,44.4-44.3c45.1-28.8,98.5-28.4,143.2,1
			c4.3,3,8.5,5.9,12.5,9.3c10.6,8.9,19.2,20.5,25,33.3c9.1,19.9,11.8,42.5,9.3,64.2c-1.6,14-5.3,27.6-10.3,40.7
			c-7.5,19.6-17.7,38-26.1,57.3c-1.2,2.8-2.4,5.7-3.5,8.6c-2,5.4-3.6,10.9-4.8,16.6c-1.7,7.8-2.6,15.8-1.6,23.5
			C380,554.3,382.5,561,385.2,568.5z"/>
	</g>
</g>
<g id="Engrenagem_1">
	<g id="CIRCLE">
		<path class="st1" d="M373.1,439.3c0-7.7,6.2-13.9,13.9-13.9c7.7,0,13.9,6.2,13.9,13.9c0,7.7-6.2,13.9-13.9,13.9
			C379.3,453.3,373.1,447,373.1,439.3L373.1,439.3z"/>
	</g>
	<g id="LWPOLYLINE_9_">
		<path class="st1" d="M398.2,419.4l6.4-6.3c-10.3-8.4-25.2-8.5-35.6-0.1l7,6.8C382.8,415.7,391.2,415.6,398.2,419.4z"/>
	</g>
	<g id="LWPOLYLINE_10_">
		<path class="st1" d="M413.3,457.9l-6.7-6.3c4.1-7.3,4.2-16.2,0.2-23.6l6.1-6.6C420.9,432.2,421.1,446.9,413.3,457.9z"/>
	</g>
	<g id="LWPOLYLINE_11_">
		<path class="st1" d="M368.6,466.6l6.3-7.5c7.8,3.5,16.7,3.5,24.5,0.1l5.7,7.2C394.2,474.2,379.5,474.3,368.6,466.6z"/>
	</g>
	<g id="LWPOLYLINE_12_">
		<path class="st1" d="M366.6,451.3l-6.4,6.3c-7.9-10.8-7.8-25.5,0.2-36.3c0,0,6.2,6.1,6.2,6.1C363.4,435.1,363.4,443.7,366.6,451.3
			z"/>
	</g>
	<g id="LWPOLYLINE_13_">
		<path class="st1" d="M392.9,397.3c6.9,1.1,13.5,3.9,19,8.1l8.4-6.3l5.8,6.3l-5.5,8.9c4,5.5,6.6,11.9,7.6,18.6l10.2,2.3l0,8.5
			l-10.2,2.1c-1,6.7-3.6,13-7.6,18.4l5.5,9.1l-5.6,5.8l-9.1-5.6c-5.7,4.3-12.4,7-19.5,8l0.2,8.9l-10.3,0.6l-1.9-9.4
			c-7-1-13.7-3.7-19.5-8c0,0-7.2,6.4-7.2,6.4l-7-6.7l5.9-7.8c-4.5-5.7-7.4-12.5-8.5-19.7l-9.7-2.3v-8.9l9.7-1.9
			c1.1-7,3.9-13.7,8.2-19.4l-5.9-8l6.9-6.5c0,0,7.6,6.1,7.6,6.1c5.6-4.1,12.1-6.9,18.9-7.9l2.4-10.6h8.4L392.9,397.3z"/>
	</g>
</g>
<g id="Engrenagem_2">
	<g id="CIRCLE_1_">
		<path class="st1" d="M466.9,460.6c0-5.7,4.6-10.4,10.4-10.4c5.7,0,10.4,4.6,10.4,10.4c0,5.7-4.6,10.4-10.4,10.4
			C471.6,471,466.9,466.3,466.9,460.6L466.9,460.6z"/>
	</g>
	<g id="LWPOLYLINE_14_">
		<path class="st1" d="M485.6,445.8l4.8-4.7c-7.7-6.3-18.7-6.3-26.5-0.1l5.2,5C474.1,443,480.4,442.9,485.6,445.8z"/>
	</g>
	<g id="LWPOLYLINE_15_">
		<path class="st1" d="M496.9,474.4l-5-4.7c3.1-5.4,3.1-12.1,0.1-17.6l4.6-4.9C502.5,455.3,502.7,466.2,496.9,474.4z"/>
	</g>
	<g id="LWPOLYLINE_16_">
		<path class="st1" d="M463.5,480.9l4.7-5.6c5.8,2.6,12.4,2.6,18.2,0.1l4.2,5.3C482.6,486.6,471.7,486.6,463.5,480.9z"/>
	</g>
	<g id="LWPOLYLINE_17_">
		<path class="st1" d="M462.1,469.5l-4.8,4.7c-5.9-8-5.8-19,0.2-27l4.6,4.6C459.7,457.4,459.7,463.8,462.1,469.5z"/>
	</g>
	<g id="LWPOLYLINE_18_">
		<path class="st1" d="M481.7,429.3c5.1,0.8,10,2.9,14.2,6.1l6.3-4.7l4.3,4.7l-4.1,6.6c3,4.1,4.9,8.9,5.7,13.9l7.6,1.7
			c0,0,0,6.3,0,6.3s-7.6,1.5-7.6,1.5c-0.8,5-2.7,9.7-5.6,13.7l4.1,6.8l-4.2,4.3l-6.8-4.2c-4.3,3.2-9.2,5.2-14.5,6l0.1,6.6l-7.7,0.4
			c0,0-1.4-7-1.4-7c-5.2-0.7-10.2-2.8-14.5-5.9l-5.3,4.8l-5.2-5l4.4-5.8c-3.3-4.3-5.5-9.3-6.3-14.7c0,0-7.2-1.7-7.2-1.7v-6.6
			l7.2-1.4c0.8-5.2,2.9-10.2,6.1-14.4l-4.4-6l5.1-4.9l5.7,4.6c4.2-3.1,9-5.1,14.1-5.9c0,0,1.8-7.9,1.8-7.9h6.3L481.7,429.3z"/>
	</g>
</g>
<g id="ENgrenagem_3">
	<g id="CIRCLE_2_">
		<path class="st1" d="M410.9,529.2c0-4.8,3.9-8.8,8.8-8.8c4.8,0,8.8,3.9,8.8,8.8s-3.9,8.8-8.8,8.8
			C414.8,537.9,410.9,534,410.9,529.2L410.9,529.2z"/>
	</g>
	<g id="LWPOLYLINE_19_">
		<path class="st1" d="M426.7,516.7l4-4c-6.5-5.3-15.8-5.3-22.4-0.1l4.4,4.2C417,514.3,422.3,514.2,426.7,516.7z"/>
	</g>
	<g id="LWPOLYLINE_20_">
		<path class="st1" d="M436.2,540.9l-4.2-4c2.6-4.6,2.6-10.2,0.1-14.8l3.9-4.2C441,524.7,441.1,533.9,436.2,540.9z"/>
	</g>
	<g id="LWPOLYLINE_21_">
		<path class="st1" d="M408,546.3l4-4.7c4.9,2.2,10.5,2.2,15.4,0.1l3.6,4.5C424.2,551.1,414.9,551.2,408,546.3z"/>
	</g>
	<g id="LWPOLYLINE_22_">
		<path class="st1" d="M406.8,536.7l-4,4c-5-6.8-4.9-16.1,0.2-22.8l3.9,3.9C404.8,526.5,404.8,531.9,406.8,536.7z"/>
	</g>
	<g id="LWPOLYLINE_23_">
		<path class="st1" d="M423.4,502.7c4.4,0.7,8.5,2.5,12,5.1c0,0,5.3-4,5.3-4l3.7,4c0,0-3.4,5.6-3.4,5.6c2.5,3.5,4.2,7.5,4.8,11.7
			l6.4,1.5l0,5.4l-6.4,1.3c-0.6,4.2-2.3,8.2-4.8,11.6l3.5,5.7c0,0-3.5,3.7-3.5,3.7l-5.7-3.5c-3.6,2.7-7.8,4.4-12.2,5l0.1,5.6
			l-6.5,0.4l-1.2-5.9c-4.4-0.6-8.6-2.3-12.2-5l-4.5,4l-4.4-4.2l3.7-4.9c-2.8-3.6-4.6-7.9-5.3-12.4l-6.1-1.4v-5.6l6.1-1.2
			c0.7-4.4,2.5-8.6,5.2-12.2l-3.7-5.1l4.3-4.1l4.8,3.9c3.5-2.6,7.6-4.3,11.9-5l1.5-6.7h5.3L423.4,502.7z"/>
	</g>
</g>
<g id="Circulo">
	<g id="CIRCLE_3_">
		<path class="st1" d="M0.1,396C0.1,227.1,137.1,90.1,306,90.1S611.9,227.1,611.9,396S474.9,701.9,306,701.9S0.1,564.9,0.1,396
			L0.1,396z"/>
	</g>
</g>
</svg>
