<?xml version="1.0" encoding="utf-8"?>
<!-- Generator: Adobe Illustrator 21.0.0, SVG Export Plug-In . SVG Version: 6.00 Build 0)  -->
<svg version="1.1" xmlns="http://www.w3.org/2000/svg" xmlns:xlink="http://www.w3.org/1999/xlink" x="0px" y="0px"
	 viewBox="0 0 100 100" style="enable-background:new 0 0 100 100;" xml:space="preserve">
<style type="text/css">
	.st0{fill:none;stroke:#000000;stroke-width:0.25;stroke-linecap:round;stroke-linejoin:round;stroke-miterlimit:10;}
</style>
<g id="J">
	<g id="J_1_">
		<path class="st0" d="M37.4,46v29.9h-5.5v-7.2h-4.8v8.7c-0.1,1.4,0.9,2.7,2.3,2.8c0.1,0,10.4,0,10.4,0c1.4-0.1,2.4-1.3,2.4-2.7
			c0,0,0-16.2,0-16.2l0-15.3H37.4z"/>
	</g>
</g>
<g id="G">
	<g id="G_2_">
		<path class="st0" d="M68.7,48.9v7.7h-4.8v-6.1h-6.3v25.5h6.3v-9.7h-3.6v-4.3h8.5v15.5c0.1,1.4-0.9,2.7-2.3,2.8H54.9
			c-1.3-0.1-2.4-1.2-2.3-2.7V61.5L52.7,46h13.4c1.5,0.1,2.6,1.5,2.5,3.1"/>
	</g>
</g>
<g id="M">
	<g id="M_1_">
		<path class="st0" d="M52.7,46l-5.2,17.5L42.2,46h-4.8v29.9v4.3h2.4c1.4-0.1,2.4-1.3,2.4-2.7c0,0,0-16.2,0-16.2l3.9,12.4h2.6
			l3.8-12.1v16.1c0,1.4,1,2.6,2.3,2.7h2.5l0.1-4.3V50.4l0-4.4H52.7z"/>
	</g>
</g>
</svg>
