<?xml version="1.0" encoding="utf-8"?>
<!-- Generator: Adobe Illustrator 21.0.0, SVG Export Plug-In . SVG Version: 6.00 Build 0)  -->
<svg version="1.1" id="JMG" xmlns="http://www.w3.org/2000/svg" xmlns:xlink="http://www.w3.org/1999/xlink" x="0px" y="0px"
	 viewBox="0 0 100 100" style="enable-background:new 0 0 100 100;" xml:space="preserve">
<style type="text/css">
	.st0{
		fill:none;
		stroke: blue;
		stroke-width:0.8504;
		stroke-linecap:round;
		stroke-linejoin:round;
		stroke-miterlimit:10;
		-webkit-animation: dash 2.8s linear forwards;
	}


</style>
<g id="LWPOLYLINE">
	<path class="st0" d="M81.8,25.6c0.1-3-1.6-5.6-3.9-5.8H57.4l-8,33.4l-8.1-33.5h-7.3V77h-8.4V63.2h-7.3V80c-0.2,2.7,1.4,5.1,3.5,5.3
		c0.1,0,16,0,16,0c2.1-0.1,3.7-2.4,3.6-5.2c0,0,0-31.1,0-31.1l6,23.7h4.1l5.8-23.2v30.8c-0.1,2.7,1.5,5,3.5,5.1h17.6
		c2.1-0.2,3.6-2.6,3.5-5.3V50.2h-13v8.3h5.6V77h-9.7V28.2h9.7v11.7h7.4V25.2"/>
</g>
</svg>
