<?xml version="1.0" encoding="utf-8"?>
<!-- Generator: Adobe Illustrator 21.0.0, SVG Export Plug-In . SVG Version: 6.00 Build 0)  -->
<svg version="1.1" xmlns="http://www.w3.org/2000/svg" xmlns:xlink="http://www.w3.org/1999/xlink" x="0px" y="0px"
	 viewBox="0 0 612 792" style="enable-background:new 0 0 612 792;" xml:space="preserve">
<style type="text/css">
	.st0{fill:none;stroke:#000000;stroke-width:0.7087;stroke-linecap:round;stroke-linejoin:round;stroke-miterlimit:10;}
	.st1{fill:none;stroke:#00FF00;stroke-width:0.7087;stroke-linecap:round;stroke-linejoin:round;stroke-miterlimit:10;}
</style>
<g id="Monitor">
	<g id="LWPOLYLINE">
		<line class="st0" x1="499" y1="218.6" x2="108.3" y2="218.6"/>
	</g>
	<g id="LWPOLYLINE_1_">
		<path class="st0" d="M108.3,218.6c-2.6,1.5-4.7,3.7-6.2,6.3v277.3c0.7,3.1,3.4,5.3,6.5,5.5l378-0.1h14c1.8-0.4,3.1-2.1,3-4
			l-0.1-279.1c-1-2.4-2.5-4.4-4.5-6H108.3z"/>
	</g>
	<g id="LWPOLYLINE_2_">
		<polygon class="st0" points="120.4,441.5 485.1,441.5 485.1,237.3 121.5,237.3 		"/>
	</g>
	<g id="LWPOLYLINE_3_">
		<path class="st0" d="M108.8,218.6H499c2,1.6,3.5,3.7,4.5,6l0.1,237.6l-401.5-0.6V224.9c1.5-2.6,3.6-4.8,6.2-6.3H108.8z"/>
	</g>
	<g id="LWPOLYLINE_13_">
		<path class="st0" d="M258.6,507.8l90.8,0v35.8c6.4,7.9,15.8,12.8,25.9,13.3v1.7H232.7v-1.7c10.1-0.5,19.6-5.4,25.9-13.3V507.8z"/>
	</g>
</g>
<g id="Reflexo">
	<g id="LWPOLYLINE_4_">
		<polygon class="st0" points="174.8,461.9 325.9,218.6 410.3,218.6 258.3,462 		"/>
	</g>
	<g id="LWPOLYLINE_5_">
		<polygon class="st0" points="281.9,462 434.2,218.6 464.7,218.6 314.3,462.1 		"/>
	</g>
	<g id="LWPOLYLINE_6_">
		<polygon class="st0" points="258.6,517 349.5,517 349.5,507.8 258.6,507.8 		"/>
	</g>
</g>
<g id="Tablet">
	<g id="LWPOLYLINE_7_">
		<path class="st1" d="M326.8,401.9c0-2.8,2.1-5,4.9-5.2h104.8c3,0.5,5,3.2,4.6,6.2c0,0,0,40.3,0,40.3v113.4c0,0.9-0.6,1.7-1.5,2
			h-109c-2.2-0.4-3.9-2.3-3.9-4.6L326.8,401.9"/>
	</g>
	<g id="LWPOLYLINE_8_">
		<polyline class="st0" points="333.5,409.4 434.3,409.4 434.3,542.9 333.5,542.9 333.5,409.4 		"/>
	</g>
	<g id="LWPOLYLINE_9_">
		<polyline class="st0" points="378.6,548.4 389.2,548.4 389.2,552.7 378.5,552.7 378.5,548.4 		"/>
	</g>
</g>
<g id="Celular">
	<g id="LWPOLYLINE_10_">
		<polyline class="st0" points="426.5,550.1 433.8,550.1 433.8,553 426.5,553 426.5,550.1 		"/>
	</g>
	<g id="LWPOLYLINE_11_">
		<path class="st0" d="M407.5,558.5c-0.7,0.1-1.4,0.1-2-0.1c-2.8-0.7-4.5-3.5-3.9-6.3c0,0,0.1-103.4,0.1-103.4c0-0.1,0-0.3,0-0.4
			c0.2-3,2.7-5.2,5.7-5.1l46.4,0c2.9,0.9,4.8,3.6,4.8,6.6c0,0,0,104.6,0,104.6c0,2.1-1.6,3.9-3.8,4.1h-48.9"/>
	</g>
	<g id="LWPOLYLINE_12_">
		<polyline class="st0" points="405.5,456.1 454.5,456.1 454.5,545.4 405.2,545.4 405.5,456.1 		"/>
	</g>
</g>
<g id="Circulo">
	<g id="CIRCLE">
		<path class="st0" d="M0.1,396C0.1,227.1,137.1,90.1,306,90.1S611.9,227.1,611.9,396S474.9,701.9,306,701.9S0.1,564.9,0.1,396
			L0.1,396z"/>
	</g>
</g>
</svg>
