<?xml version="1.0" encoding="utf-8"?>
<!-- Generator: Adobe Illustrator 21.0.0, SVG Export Plug-In . SVG Version: 6.00 Build 0)  -->
<svg version="1.1" xmlns="http://www.w3.org/2000/svg" xmlns:xlink="http://www.w3.org/1999/xlink" x="0px" y="0px"
	 viewBox="0 0 612 792" style="enable-background:new 0 0 612 792;" xml:space="preserve">
<defs>
  <filter id="dropshadow" x="-30%" y="-30%" height="*svg-viewbox-height*" width="*svg-viewbox-width*" filterUnits="userSpaceOnUse">
  <feGaussianBlur in="SourceAlpha" stdDeviation="8"/> <!-- stdDeviation is how much to blur -->
  <feOffset dx="-5" dy="-5" result="offsetblur"/> <!-- how much to offset -->
  <feComponentTransfer>
    <feFuncA type="discrete" slope="0.25"/> <!-- slope is the opacity of the shadow -->
  </feComponentTransfer>
  <feMerge> 
    <feMergeNode/> <!-- this contains the offset blurred image -->
    <feMergeNode in="SourceGraphic"/> <!-- this contains the element that the filter is applied to -->
  </feMerge>
</filter>
  </defs>

<style type="text/css">
	.st0{filter:url(#dropshadow);fill:none;stroke:#000000;stroke-width:0;stroke-linecap:round;stroke-linejoin:round;stroke-miterlimit:10;}
	.fundo{fill:;}
	.screen{fill:WHITE;}
	.screen-border{fill:black; stroke:white;}
	.device-border{stroke:white;}
	.screen-support{fill: #D8D8D8;}
	.button{stroke:white;}
</style>
<g id="Circulo">
	<g id="CIRCLE">
		<path class="st0 fundo" d="M0.1,396C0.1,227.1,137.1,90.1,306,90.1S611.9,227.1,611.9,396S474.9,701.9,306,701.9S0.1,564.9,0.1,396
			L0.1,396z"/>
	</g>
</g>
<g id="Monitor">
	<g id="LWPOLYLINE">
		<line class="st0" x1="499" y1="218.6" x2="108.3" y2="218.6"/>
	</g>
	<g id="LWPOLYLINE_1_">
		<path class="st0 screen-support" d="M108.3,218.6c-2.6,1.5-4.7,3.7-6.2,6.3v277.3c0.7,3.1,3.4,5.3,6.5,5.5l378-0.1h14c1.8-0.4,3.1-2.1,3-4
			l-0.1-279.1c-1-2.4-2.5-4.4-4.5-6H108.3z"/>
	</g>

	<g id="LWPOLYLINE_3_">
		<path class="st0 screen-border" d="M108.8,218.6H499c2,1.6,3.5,3.7,4.5,6l0.1,237.6l-401.5-0.6V224.9c1.5-2.6,3.6-4.8,6.2-6.3H108.8z"/>
	</g>
	<g id="LWPOLYLINE_2_">
		<polygon class="st0 screen" points="120.4,441.5 485.1,441.5 485.1,237.3 121.5,237.3">
			<set id="m_show" attributeName="visibility" attributeType="CSS" to="visible" begin="0s; c_show.end" dur="1s" fill="freeze"/>
    		<set id="m_hide" attributeName="visibility" attributeType="CSS" to="hidden" begin="m_show.end" dur="1s" fill="freeze"/>
		</polygon>
	</g>
	<g id="LWPOLYLINE_13_">
		<path class="st0 screen-support" d="M258.6,507.8l90.8,0v35.8c6.4,7.9,15.8,12.8,25.9,13.3v1.7H232.7v-1.7c10.1-0.5,19.6-5.4,25.9-13.3V507.8z"/>
	</g>
</g>
<g id="Tablet">
	<g id="LWPOLYLINE_7_">
		<path class="st0 screen-border" d="M326.8,401.9c0-2.8,2.1-5,4.9-5.2h104.8c3,0.5,5,3.2,4.6,6.2c0,0,0,40.3,0,40.3v113.4c0,0.9-0.6,1.7-1.5,2
			h-109c-2.2-0.4-3.9-2.3-3.9-4.6L326.8,401.9"/>
	</g>
	<g id="LWPOLYLINE_8_">
		<polyline class="st0 screen" points="333.5,409.4 434.3,409.4 434.3,542.9 333.5,542.9 333.5,409.4">
			<set id="t_show" attributeName="visibility" attributeType="CSS" to="visible" begin="0s; m_show.end" dur="1s" fill="freeze"/>
    		<set id="t_hide" attributeName="visibility" attributeType="CSS" to="hidden" begin="t_show.end" dur="1s" fill="freeze"/>
		</polyline>
	</g>
	<g id="LWPOLYLINE_9_">
		<polyline class="st0 button" points="378.6,548.4 389.2,548.4 389.2,552.7 378.5,552.7 378.5,548.4"/>
	</g>
</g>
<g id="Celular">
	<g id="LWPOLYLINE_11_">
		<path class="st0 screen-border" d="M407.5,558.5c-0.7,0.1-1.4,0.1-2-0.1c-2.8-0.7-4.5-3.5-3.9-6.3c0,0,0.1-103.4,0.1-103.4c0-0.1,0-0.3,0-0.4
			c0.2-3,2.7-5.2,5.7-5.1l46.4,0c2.9,0.9,4.8,3.6,4.8,6.6c0,0,0,104.6,0,104.6c0,2.1-1.6,3.9-3.8,4.1h-48.9"/>
	</g>
	<g id="LWPOLYLINE_12_">
		<polyline class="st0 screen" points="405.5,456.1 454.5,456.1 454.5,545.4 405.2,545.4 405.5,456.1">
			<set id="c_show" attributeName="visibility" attributeType="CSS" to="visible" begin="0s; t_show.end" dur="1s" fill="freeze"/>
    		<set id="c_hide" attributeName="visibility" attributeType="CSS" to="hidden" begin="c_show.end" dur="1s" fill="freeze"/>
		</polyline>
	</g>
	<g id="LWPOLYLINE_10_">
		<polyline class="st0 button" points="426.5,550.1 433.8,550.1 433.8,553 426.5,553 426.5,550.1 		"/>
	</g>
</g>
</svg>
