<?xml version="1.0" encoding="utf-8"?>
<!-- Generator: Adobe Illustrator 21.0.0, SVG Export Plug-In . SVG Version: 6.00 Build 0)  -->
<svg version="1.1" xmlns="http://www.w3.org/2000/svg" xmlns:xlink="http://www.w3.org/1999/xlink" x="0px" y="0px"
	 viewBox="0 0 612 792" style="enable-background:new 0 0 612 792;" xml:space="preserve">
<style type="text/css">
	.st0{fill:none;stroke:#FFFFFF;stroke-width:5px;stroke-linecap:round;stroke-linejoin:round;stroke-miterlimit:10;}
</style>
<g id="_x30_">
	<g id="LWPOLYLINE">
		<polygon class="st0" points="167.3,338.2 243,338.2 265.9,413.7 288.1,338.2 325.5,338.2 347.9,412.4 369.9,338.2 445.1,338.2 
			468.2,414.5 490.4,338.2 527.8,338.2 550.6,414.3 572.6,338.2 611.9,338.2 568.7,455.4 529.6,455.4 508.9,384.2 486.8,455.4 
			447.6,455.4 407.2,343.6 366.2,455.4 327.4,455.4 305.7,385.1 283.6,455.4 246,455.4 204.2,343.4 164,455.4 125.5,455.4 
			102.8,384.3 81.9,455.4 41.9,455.4 0.1,338.2 40.8,338.2 62.8,414.1 85.9,338.2 122.6,338.2 145.5,414.3 		"/>
	</g>
</g>
<g id="Mundo_superior">
	<g id="LWPOLYLINE_1_">
		<path class="st0" d="M292.1,255.1c-27.7-0.5-55.4-2.6-82.9-6.2c10.3-33.8,29.9-64.1,56.7-87.2c4.3-3.4,9-6.4,14-8.7l12.2,0
			L292.1,255.1z"/>
	</g>
	<g id="LWPOLYLINE_2_">
		<path class="st0" d="M203.1,267.4c29.5,4.1,59.2,6.5,89,7.1v16.8c0,0,26.4,0,26.4,0s0-16.7,0-16.7c30.3-0.5,60.6-2.7,90.7-6.8
			c2.1,7.7,3.8,15.5,5.1,23.4c0,0,20.4,0,20.4,0c-1.5-8.9-3.4-17.6-5.7-26.3c24.1-3.9,47.9-9,71.5-15.3
			c10.2,12.5,18.4,26.5,24.3,41.5h30.5C497,153.2,338,88.7,200.2,147c-65.1,27.5-116.9,79.5-144.3,144.7l30.8,0
			c6.7-15.2,15-29.5,24.9-42.8c23.8,6.4,47.9,11.6,72.1,15.7c-2.5,8.9-4.5,17.9-6.1,27l19.1,0C198.5,283.4,200.7,275.4,203.1,267.4z
			"/>
	</g>
	<g id="LWPOLYLINE_3_">
		<path class="st0" d="M318.5,255.1l0.7-101.7l11.8,0.4c9.8,4.2,18.7,10.3,26.1,18c20.2,22.5,35.9,48.7,46.2,77.2
			C375.2,252.6,346.9,254.7,318.5,255.1z"/>
	</g>
	<g id="LWPOLYLINE_4_">
		<path class="st0" d="M487.7,233.2c-29.9-33.8-68.7-58.5-111.9-71.2c20.7,25,36.8,53.5,47.4,84.2
			C444.9,242.8,466.4,238.5,487.7,233.2z"/>
	</g>
	<g id="LWPOLYLINE_5_">
		<path class="st0" d="M124.5,232.9c30-34.1,69.3-58.6,113.1-70.7c-20.8,24.9-37.1,53.3-48,83.9c-21.9-3.4-43.7-7.8-65.2-13.2"/>
	</g>
</g>
<g id="Mundo_inferior">
	<g id="LWPOLYLINE_6_">
		<path class="st0" d="M293.1,536.9c-27.7,0.5-55.4,2.6-82.9,6.2c10.3,33.8,29.9,64.1,56.7,87.2c4.3,3.4,9,6.4,14,8.7
			c0,0,12.2,0,12.2,0L293.1,536.9z"/>
	</g>
	<g id="LWPOLYLINE_7_">
		<path class="st0" d="M204.1,524.6c29.5-4.1,59.2-6.5,89-7.1c0,0,0-16.8,0-16.8l26.4,0v16.7c30.3,0.5,60.6,2.7,90.7,6.8
			c2.1-7.7,3.8-15.5,5.1-23.4l20.4,0c-1.5,8.9-3.4,17.6-5.7,26.3c24.1,3.9,47.9,9,71.5,15.3c10.2-12.5,18.4-26.5,24.3-41.5h30.5
			c-27.5,65.1-79.5,116.9-144.7,144.3c-138,57.9-296.8-7-354.6-145c0,0,30.8,0,30.8,0c6.7,15.2,15,29.5,24.9,42.8
			c23.8-6.4,47.9-11.6,72.1-15.7c-2.5-8.9-4.5-17.9-6.1-27c0,0,19.1,0,19.1,0C199.5,508.6,201.6,516.6,204.1,524.6z"/>
	</g>
	<g id="LWPOLYLINE_8_">
		<path class="st0" d="M319.5,536.9l0.7,101.7c0,0,11.8-0.4,11.8-0.4c9.8-4.2,18.7-10.3,26.1-18c20.2-22.5,35.9-48.7,46.2-77.2
			C376.2,539.4,347.9,537.3,319.5,536.9z"/>
	</g>
	<g id="LWPOLYLINE_9_">
		<path class="st0" d="M488.7,558.8c-29.9,33.8-68.7,58.5-111.9,71.2c20.7-25,36.8-53.5,47.4-84.2
			C445.9,549.2,467.4,553.5,488.7,558.8z"/>
	</g>
	<g id="LWPOLYLINE_10_">
		<path class="st0" d="M125.5,559.1c30,34.1,69.3,58.6,113.1,70.7c-20.8-24.9-37.1-53.3-48-83.9c-21.9,3.4-43.7,7.8-65.2,13.2"/>
	</g>
</g>
</svg>
