<?xml version="1.0" encoding="UTF-8" standalone="no"?>
<!DOCTYPE svg PUBLIC "-//W3C//DTD SVG 1.1//EN" "http://www.w3.org/Graphics/SVG/1.1/DTD/svg11.dtd">
<svg version="1.1" xmlns="http://www.w3.org/2000/svg" xmlns:xlink="http://www.w3.org/1999/xlink" preserveAspectRatio="xMidYMid meet" viewBox="0 0 640 640" width="640" height="640"><defs><path d="M257.17 122.36L259.3 122.57L261.41 122.88L263.49 123.26L265.54 123.72L267.56 124.27L269.54 124.89L271.5 125.58L273.42 126.35L275.3 127.19L277.14 128.1L278.94 129.08L280.69 130.12L282.41 131.23L284.07 132.41L285.69 133.64L287.26 134.94L288.78 136.29L290.24 137.7L291.65 139.17L293.01 140.69L294.3 142.26L295.54 143.88L296.71 145.54L297.82 147.25L298.87 149.01L299.85 150.81L300.76 152.65L301.6 154.53L302.37 156.45L303.06 158.4L303.68 160.39L304.22 162.41L304.69 164.46L305.07 166.54L305.37 168.65L305.59 170.78L305.72 172.94L305.77 175.12L305.77 319.47L306.44 318.95L307.13 318.44L307.83 317.94L308.53 317.45L309.24 316.97L309.96 316.5L310.69 316.05L311.43 315.6L312.17 315.17L312.92 314.75L313.68 314.34L314.44 313.94L315.22 313.56L316 313.19L316.78 312.83L317.58 312.48L318.38 312.14L319.19 311.82L320 311.51L320.82 311.22L321.65 310.93L322.48 310.66L323.31 310.41L324.16 310.17L325.01 309.94L325.86 309.72L326.72 309.52L327.59 309.34L328.46 309.16L329.33 309L330.21 308.86L331.1 308.73L331.99 308.62L332.88 308.52L333.78 308.43L334.69 308.36L335.59 308.31L336.5 308.27L337.42 308.25L338.34 308.24L339.65 308.25L340.95 308.3L342.25 308.38L343.54 308.49L344.82 308.63L346.08 308.8L347.34 309.01L348.59 309.24L349.83 309.5L351.06 309.78L352.28 310.1L353.49 310.45L354.68 310.82L355.86 311.22L357.03 311.65L358.19 312.1L359.33 312.58L360.46 313.09L361.58 313.62L362.68 314.17L363.76 314.75L364.83 315.36L365.89 315.99L366.93 316.64L367.95 317.32L368.96 318.02L369.95 318.74L370.92 319.48L371.87 320.25L372.81 321.03L373.73 321.84L374.63 322.67L375.51 323.52L376.37 324.39L377.21 325.27L378.02 326.18L378.82 327.11L379.6 328.05L380.36 329.01L381.09 329.99L381.82 329.01L382.58 328.05L383.36 327.11L384.16 326.18L384.97 325.27L385.81 324.39L386.67 323.52L387.55 322.67L388.45 321.84L389.37 321.03L390.31 320.25L391.26 319.48L392.23 318.74L393.22 318.02L394.23 317.32L395.25 316.64L396.29 315.99L397.35 315.36L398.42 314.75L399.5 314.17L400.6 313.62L401.72 313.09L402.85 312.58L403.99 312.1L405.15 311.65L406.32 311.22L407.5 310.82L408.7 310.45L409.9 310.1L411.12 309.78L412.35 309.5L413.59 309.24L414.84 309.01L416.1 308.8L417.37 308.63L418.64 308.49L419.93 308.38L421.23 308.3L422.53 308.25L423.84 308.24L425.16 308.25L426.46 308.3L427.76 308.38L429.04 308.49L430.32 308.63L431.59 308.8L432.85 309.01L434.1 309.24L435.34 309.5L436.57 309.78L437.79 310.1L438.99 310.45L440.19 310.82L441.37 311.22L442.54 311.65L443.7 312.1L444.84 312.58L445.97 313.09L447.08 313.62L448.18 314.17L449.27 314.75L450.34 315.36L451.4 315.99L452.44 316.64L453.46 317.32L454.47 318.02L455.46 318.74L456.43 319.48L457.38 320.25L458.32 321.03L459.24 321.84L460.13 322.67L461.01 323.52L461.87 324.39L462.71 325.27L463.53 326.18L464.33 327.11L465.11 328.05L465.86 329.01L466.6 329.99L467.33 329.01L468.09 328.05L468.86 327.11L469.66 326.18L470.48 325.27L471.32 324.39L472.18 323.52L473.06 322.67L473.96 321.84L474.88 321.03L475.81 320.25L476.77 319.48L477.74 318.74L478.73 318.02L479.73 317.32L480.76 316.64L481.8 315.99L482.85 315.36L483.92 314.75L485.01 314.17L486.11 313.62L487.23 313.09L488.36 312.58L489.5 312.1L490.66 311.65L491.83 311.22L493.01 310.82L494.2 310.45L495.41 310.1L496.63 309.78L497.85 309.5L499.09 309.24L500.34 309.01L501.6 308.8L502.87 308.63L504.15 308.49L505.44 308.38L506.74 308.3L508.04 308.25L509.35 308.24L511.53 308.28L513.69 308.41L515.82 308.63L517.93 308.93L520.01 309.32L522.06 309.78L524.08 310.32L526.06 310.94L528.02 311.64L529.94 312.4L531.82 313.25L533.66 314.16L535.46 315.13L537.21 316.18L538.93 317.29L540.59 318.47L542.21 319.7L543.78 321L545.3 322.35L546.76 323.76L548.17 325.22L549.53 326.74L550.82 328.31L552.06 329.93L553.23 331.6L554.34 333.31L555.39 335.07L556.37 336.87L557.28 338.71L558.12 340.59L558.89 342.51L559.58 344.46L560.2 346.45L560.74 348.47L561.21 350.52L561.59 352.6L561.89 354.71L562.11 356.84L562.24 358.99L562.28 361.17L562.28 548.36L562.21 552.14L561.98 555.87L561.6 559.56L561.08 563.21L560.42 566.81L559.62 570.36L558.68 573.86L557.6 577.3L556.4 580.68L555.07 584L553.62 587.25L552.04 590.44L550.35 593.56L548.54 596.6L546.61 599.56L544.58 602.45L542.44 605.25L540.2 607.97L537.86 610.59L535.41 613.13L532.88 615.57L530.25 617.91L527.53 620.16L524.73 622.3L521.85 624.33L518.88 626.25L515.84 628.06L512.72 629.76L509.54 631.33L506.28 632.79L502.96 634.12L499.58 635.32L496.14 636.39L492.64 637.33L489.09 638.13L485.49 638.8L481.84 639.32L478.15 639.7L474.42 639.92L470.65 640L291.53 640L287.76 639.92L284.03 639.7L280.33 639.32L276.69 638.8L273.09 638.13L269.54 637.33L266.04 636.39L262.6 635.32L259.22 634.12L255.9 632.79L252.64 631.33L249.45 629.76L246.34 628.06L243.3 626.25L240.33 624.33L237.45 622.3L234.64 620.16L231.93 617.91L229.3 615.57L226.76 613.13L224.32 610.59L221.98 607.97L219.74 605.25L217.6 602.45L215.57 599.56L213.64 596.6L211.83 593.56L210.14 590.44L208.56 587.25L207.11 584L205.78 580.68L204.57 577.3L203.5 573.86L202.56 570.36L201.76 566.81L201.1 563.21L200.58 559.56L200.2 555.87L199.97 552.14L199.89 548.36L199.89 175.12L199.94 172.94L200.07 170.78L200.29 168.65L200.59 166.54L200.97 164.46L201.44 162.41L201.98 160.39L202.6 158.4L203.29 156.45L204.06 154.53L204.9 152.65L205.81 150.81L206.79 149.01L207.84 147.25L208.95 145.54L210.12 143.87L211.36 142.26L212.65 140.69L214.01 139.17L215.42 137.7L216.88 136.29L218.4 134.94L219.97 133.64L221.59 132.41L223.25 131.23L224.97 130.12L226.72 129.08L228.52 128.1L230.37 127.19L232.25 126.35L234.16 125.58L236.12 124.88L238.1 124.27L240.13 123.72L242.18 123.26L244.26 122.88L246.36 122.57L248.5 122.36L250.65 122.23L252.83 122.18L255.01 122.23L257.17 122.36ZM250.16 142.65L248.85 142.79L247.56 142.97L246.28 143.21L245.01 143.49L243.77 143.83L242.55 144.21L241.35 144.64L240.17 145.11L239.01 145.63L237.88 146.19L236.77 146.79L235.69 147.43L234.63 148.12L233.61 148.84L232.61 149.6L231.65 150.4L230.71 151.23L229.81 152.1L228.94 153L228.11 153.93L227.31 154.9L226.55 155.89L225.83 156.92L225.15 157.97L224.5 159.05L223.9 160.16L223.34 161.29L222.82 162.45L222.35 163.63L221.92 164.83L221.54 166.06L221.21 167.3L220.92 168.56L220.69 169.84L220.5 171.14L220.37 172.45L220.29 173.78L220.26 175.12L220.26 548.36L220.32 551.3L220.5 554.2L220.79 557.07L221.19 559.91L221.71 562.71L222.33 565.47L223.07 568.19L223.9 570.87L224.83 573.5L225.87 576.08L227 578.61L228.23 581.09L229.54 583.51L230.95 585.88L232.45 588.19L234.03 590.43L235.69 592.61L237.44 594.72L239.26 596.77L241.16 598.74L243.13 600.64L245.17 602.46L247.29 604.2L249.47 605.87L251.71 607.45L254.02 608.94L256.38 610.35L258.81 611.67L261.28 612.9L263.82 614.03L266.4 615.06L269.03 616L271.7 616.83L274.42 617.56L277.19 618.19L279.99 618.7L282.82 619.11L285.7 619.4L288.6 619.58L291.53 619.64L470.65 619.64L472.61 619.59L474.56 619.46L476.5 619.24L478.44 618.92L480.36 618.52L482.27 618.03L484.18 617.45L486.08 616.79L487.96 616.03L489.84 615.18L491.71 614.25L493.57 613.22L495.42 612.11L497.26 610.91L499.09 609.61L500.92 608.23L502.73 606.76L504.54 605.2L506.33 603.56L508.12 601.82L509.9 599.99L511.66 598.08L513.42 596.07L515.17 593.98L516.91 591.8L518.64 589.52L520.37 587.16L522.08 584.71L523.78 582.17L525.48 579.55L527.16 576.83L528.84 574.02L530.51 571.13L532.17 568.14L533.82 565.07L535.46 561.91L537.09 558.65L538.71 555.31L540.32 551.88L541.92 548.36L541.92 361.17L541.9 359.83L541.82 358.51L541.68 357.19L541.5 355.9L541.26 354.62L540.98 353.36L540.64 352.11L540.26 350.89L539.83 349.69L539.36 348.51L538.84 347.35L538.28 346.22L537.68 345.11L537.04 344.03L536.35 342.98L535.63 341.95L534.87 340.95L534.07 339.99L533.24 339.05L532.37 338.15L531.47 337.29L530.54 336.45L529.57 335.66L528.58 334.89L527.55 334.17L526.5 333.49L525.42 332.85L524.31 332.24L523.18 331.68L522.02 331.17L520.84 330.69L519.64 330.27L518.41 329.88L517.17 329.55L515.91 329.27L514.63 329.03L513.33 328.84L512.02 328.71L510.69 328.63L509.35 328.6L508.01 328.63L506.68 328.71L505.37 328.84L504.08 329.03L502.8 329.27L501.53 329.55L500.29 329.88L499.07 330.27L497.87 330.69L496.69 331.17L495.53 331.68L494.4 332.24L493.29 332.85L492.21 333.49L491.15 334.17L490.13 334.89L489.13 335.66L488.17 336.45L487.23 337.29L486.33 338.15L485.46 339.05L484.63 339.99L483.83 340.95L483.07 341.95L482.35 342.98L481.67 344.03L481.02 345.11L480.42 346.22L479.86 347.35L479.34 348.51L478.87 349.69L478.44 350.89L478.06 352.11L477.73 353.36L477.44 354.62L477.21 355.9L477.02 357.19L476.89 358.51L476.81 359.83L476.78 361.17L476.78 381.54L476.77 381.96L476.75 382.37L476.7 382.78L476.65 383.19L476.57 383.59L476.48 383.98L476.38 384.37L476.26 384.75L476.13 385.13L475.98 385.5L475.82 385.86L475.64 386.22L475.46 386.56L475.25 386.9L475.04 387.23L474.82 387.55L474.58 387.86L474.33 388.16L474.07 388.45L473.8 388.74L473.52 389.01L473.22 389.27L472.92 389.52L472.61 389.75L472.29 389.98L471.96 390.19L471.62 390.39L471.28 390.58L470.92 390.76L470.56 390.92L470.19 391.07L469.82 391.2L469.43 391.32L469.05 391.42L468.65 391.51L468.25 391.59L467.84 391.64L467.43 391.68L467.02 391.71L466.6 391.72L466.18 391.71L465.76 391.68L465.35 391.64L464.95 391.59L464.55 391.51L464.15 391.42L463.76 391.32L463.38 391.2L463 391.07L462.64 390.92L462.27 390.76L461.92 390.58L461.57 390.39L461.24 390.19L460.91 389.98L460.59 389.75L460.27 389.52L459.97 389.27L459.68 389.01L459.4 388.74L459.13 388.45L458.87 388.16L458.62 387.86L458.38 387.55L458.16 387.23L457.94 386.9L457.74 386.56L457.55 386.22L457.38 385.86L457.22 385.5L457.07 385.13L456.94 384.75L456.82 384.37L456.71 383.98L456.62 383.59L456.55 383.19L456.49 382.78L456.45 382.37L456.43 381.96L456.42 381.54L456.42 361.17L456.39 359.83L456.31 358.51L456.17 357.19L455.99 355.9L455.75 354.62L455.47 353.36L455.13 352.11L454.75 350.89L454.33 349.69L453.85 348.51L453.34 347.35L452.78 346.22L452.17 345.11L451.53 344.03L450.85 342.98L450.12 341.95L449.36 340.95L448.57 339.99L447.73 339.05L446.87 338.15L445.97 337.29L445.03 336.45L444.07 335.66L443.07 334.89L442.04 334.17L440.99 333.49L439.91 332.85L438.8 332.24L437.67 331.68L436.51 331.17L435.33 330.69L434.13 330.27L432.91 329.88L431.66 329.55L430.4 329.27L429.12 329.03L427.83 328.84L426.51 328.71L425.19 328.63L423.85 328.6L422.51 328.63L421.18 328.71L419.87 328.84L418.57 329.03L417.29 329.27L416.03 329.55L414.78 329.88L413.56 330.27L412.36 330.69L411.18 331.17L410.02 331.68L408.89 332.24L407.78 332.85L406.7 333.49L405.65 334.17L404.62 334.89L403.63 335.66L402.66 336.45L401.73 337.29L400.82 338.15L399.96 339.05L399.12 339.99L398.33 340.95L397.57 341.95L396.84 342.98L396.16 344.03L395.52 345.11L394.91 346.22L394.35 347.35L393.84 348.51L393.36 349.69L392.94 350.89L392.56 352.11L392.22 353.36L391.94 354.62L391.7 355.9L391.52 357.19L391.38 358.51L391.3 359.83L391.27 361.17L391.27 381.54L391.26 381.96L391.24 382.37L391.2 382.78L391.14 383.19L391.07 383.59L390.98 383.98L390.87 384.37L390.75 384.75L390.62 385.13L390.47 385.5L390.31 385.86L390.14 386.22L389.95 386.56L389.75 386.9L389.53 387.23L389.31 387.55L389.07 387.86L388.82 388.16L388.56 388.45L388.29 388.74L388.01 389.01L387.72 389.27L387.42 389.52L387.1 389.75L386.78 389.98L386.45 390.19L386.12 390.39L385.77 390.58L385.42 390.76L385.05 390.92L384.69 391.07L384.31 391.2L383.93 391.32L383.54 391.42L383.14 391.51L382.74 391.59L382.34 391.64L381.93 391.68L381.51 391.71L381.09 391.72L380.67 391.71L380.26 391.68L379.85 391.64L379.44 391.59L379.04 391.51L378.64 391.42L378.26 391.32L377.87 391.2L377.5 391.07L377.13 390.92L376.77 390.76L376.41 390.58L376.07 390.39L375.73 390.19L375.4 389.98L375.08 389.75L374.77 389.52L374.47 389.27L374.17 389.01L373.89 388.74L373.62 388.45L373.36 388.16L373.11 387.86L372.87 387.55L372.65 387.23L372.44 386.9L372.23 386.56L372.05 386.22L371.87 385.86L371.71 385.5L371.56 385.13L371.43 384.75L371.31 384.37L371.21 383.98L371.12 383.59L371.04 383.19L370.99 382.78L370.94 382.37L370.92 381.96L370.91 381.54L370.91 361.17L370.88 359.83L370.8 358.51L370.67 357.19L370.48 355.9L370.25 354.62L369.96 353.36L369.63 352.11L369.25 350.89L368.82 349.69L368.35 348.51L367.83 347.35L367.27 346.22L366.67 345.11L366.02 344.03L365.34 342.98L364.62 341.95L363.86 340.95L363.06 339.99L362.23 339.05L361.36 338.15L360.46 337.29L359.52 336.45L358.56 335.66L357.56 334.89L356.54 334.17L355.48 333.49L354.4 332.85L353.29 332.24L352.16 331.68L351.01 331.17L349.83 330.69L348.62 330.27L347.4 329.88L346.16 329.55L344.9 329.27L343.62 329.03L342.32 328.84L341.01 328.71L339.68 328.63L338.34 328.6L337 328.63L335.67 328.71L334.36 328.84L333.06 329.03L331.78 329.27L330.52 329.55L329.28 329.88L328.05 330.27L326.85 330.69L325.67 331.17L324.52 331.68L323.38 332.24L322.27 332.85L321.19 333.49L320.14 334.17L319.11 334.89L318.12 335.66L317.15 336.45L316.22 337.29L315.32 338.15L314.45 339.05L313.62 339.99L312.82 340.95L312.06 341.95L311.34 342.98L310.65 344.03L310.01 345.11L309.41 346.22L308.85 347.35L308.33 348.51L307.86 349.69L307.43 350.89L307.05 352.11L306.71 353.36L306.43 354.62L306.19 355.9L306.01 357.19L305.87 358.51L305.79 359.83L305.77 361.17L305.77 381.54L305.76 381.96L305.73 382.37L305.69 382.78L305.63 383.19L305.56 383.59L305.47 383.98L305.37 384.37L305.25 384.75L305.11 385.13L304.97 385.5L304.8 385.86L304.63 386.22L304.44 386.56L304.24 386.9L304.03 387.23L303.8 387.55L303.56 387.86L303.32 388.16L303.06 388.45L302.78 388.74L302.5 389.01L302.21 389.27L301.91 389.52L301.6 389.75L301.28 389.98L300.95 390.19L300.61 390.39L300.26 390.58L299.91 390.76L299.55 390.92L299.18 391.07L298.8 391.2L298.42 391.32L298.03 391.42L297.64 391.51L297.24 391.59L296.83 391.64L296.42 391.68L296 391.71L295.58 391.72L295.17 391.71L294.75 391.68L294.34 391.64L293.93 391.59L293.53 391.51L293.14 391.42L292.75 391.32L292.37 391.2L291.99 391.07L291.62 390.92L291.26 390.76L290.91 390.58L290.56 390.39L290.22 390.19L289.89 389.98L289.57 389.75L289.26 389.52L288.96 389.27L288.67 389.01L288.39 388.74L288.11 388.45L287.85 388.16L287.6 387.86L287.37 387.55L287.14 387.23L286.93 386.9L286.73 386.56L286.54 386.22L286.36 385.86L286.2 385.5L286.06 385.13L285.92 384.75L285.8 384.37L285.7 383.98L285.61 383.59L285.54 383.19L285.48 382.78L285.44 382.37L285.41 381.96L285.4 381.54L285.4 175.12L285.38 173.78L285.29 172.45L285.16 171.14L284.98 169.84L284.74 168.56L284.45 167.3L284.12 166.06L283.74 164.83L283.31 163.63L282.84 162.45L282.32 161.29L281.76 160.16L281.16 159.05L280.52 157.97L279.83 156.92L279.11 155.89L278.35 154.9L277.55 153.93L276.72 153L275.85 152.1L274.95 151.23L274.02 150.4L273.05 149.6L272.06 148.84L271.03 148.12L269.98 147.43L268.9 146.79L267.79 146.19L266.66 145.63L265.5 145.11L264.32 144.64L263.12 144.21L261.89 143.83L260.65 143.49L259.39 143.21L258.11 142.97L256.81 142.79L255.5 142.65L254.17 142.57L252.83 142.55L251.49 142.57L250.16 142.65Z" id="a2ESfQQ36U"></path><path d="M329.12 230.81C325.77 235.33 326.72 241.71 331.24 245.05C335.76 248.4 342.13 247.45 345.48 242.93C360.11 223.19 367.85 199.74 367.85 175.12C367.85 112.24 316.7 61.09 253.82 61.09C190.95 61.09 139.8 112.24 139.8 175.12C139.8 199.74 147.53 223.19 162.16 242.94C164.16 245.63 167.23 247.06 170.35 247.06C172.46 247.06 174.58 246.4 176.4 245.05C180.92 241.71 181.87 235.33 178.52 230.81C166.51 214.6 160.16 195.34 160.16 175.12C160.16 123.47 202.18 81.45 253.82 81.45C305.47 81.45 347.48 123.47 347.48 175.12C347.48 195.34 341.13 214.6 329.12 230.81Z" id="ay1Eqinaa"></path><path d="M98.08 175.12C98.08 140.31 109.37 107.43 130.72 80.04C134.18 75.61 133.39 69.21 128.96 65.75C124.52 62.29 118.12 63.09 114.67 67.52C90.49 98.52 77.71 135.73 77.71 175.12C77.71 206.18 85.96 236.7 101.56 263.38C116.69 289.25 138.34 310.96 164.19 326.16C165.81 327.11 167.59 327.57 169.34 327.57C172.83 327.57 176.23 325.77 178.13 322.54C180.98 317.7 179.36 311.46 174.51 308.61C127.36 280.88 98.08 229.73 98.08 175.12Z" id="a4OkEQP2Q"></path><path d="M252.83 20.36C338.16 20.36 407.58 89.79 407.58 175.12C407.58 213.74 393.28 250.72 367.3 279.26C363.52 283.42 363.82 289.86 367.98 293.64C369.93 295.42 372.38 296.29 374.83 296.29C377.59 296.29 380.35 295.17 382.36 292.97C411.76 260.67 427.95 218.82 427.95 175.12C427.95 78.56 349.39 0 252.83 0C213.44 0 176.23 12.78 145.23 36.95C140.8 40.41 140.01 46.81 143.46 51.24C146.92 55.68 153.32 56.47 157.76 53.01C185.14 31.65 218.02 20.36 252.83 20.36Z" id="f163tCrxcW"></path></defs><g><g><g><use xlink:href="#a2ESfQQ36U" opacity="1" fill="#000000" fill-opacity="1"></use><g><use xlink:href="#a2ESfQQ36U" opacity="1" fill-opacity="0" stroke="#000000" stroke-width="1" stroke-opacity="0"></use></g></g><g><use xlink:href="#ay1Eqinaa" opacity="1" fill="#3e83c0" fill-opacity="1"></use><g><use xlink:href="#ay1Eqinaa" opacity="1" fill-opacity="0" stroke="#000000" stroke-width="1" stroke-opacity="0"></use></g></g><g><use xlink:href="#a4OkEQP2Q" opacity="1" fill="#3e83c0" fill-opacity="1"></use><g><use xlink:href="#a4OkEQP2Q" opacity="1" fill-opacity="0" stroke="#000000" stroke-width="1" stroke-opacity="0"></use></g></g><g><use xlink:href="#f163tCrxcW" opacity="1" fill="#3e83c0" fill-opacity="1"></use><g><use xlink:href="#f163tCrxcW" opacity="1" fill-opacity="0" stroke="#000000" stroke-width="1" stroke-opacity="0"></use></g></g></g></g></svg>